<svg width="152" height="68" viewBox="0 0 152 68" fill="none" xmlns="http://www.w3.org/2000/svg">
<path d="M11.68 31C12.8 31 13.6533 30.7467 14.24 30.24C14.8533 29.7067 15.16 28.9067 15.16 27.84C15.16 26.8267 14.84 26.0533 14.2 25.52C13.5867 24.96 12.68 24.68 11.48 24.68C11.0533 24.68 10.6933 24.6933 10.4 24.72C10.1333 24.72 9.85333 24.7467 9.56 24.8V31H11.68ZM9.6 43.84C9.30667 43.92 8.84 44 8.2 44.08C7.58667 44.16 6.97333 44.2 6.36 44.2C5.74667 44.2 5.2 44.1467 4.72 44.04C4.26667 43.96 3.88 43.8 3.56 43.56C3.24 43.32 3 42.9867 2.84 42.56C2.68 42.1333 2.6 41.5733 2.6 40.88V22.04C2.6 21.48 2.74667 21.0533 3.04 20.76C3.36 20.44 3.78667 20.1867 4.32 20C5.22667 19.68 6.25333 19.4533 7.4 19.32C8.57333 19.16 9.74667 19.08 10.92 19.08C14.6 19.08 17.4133 19.8667 19.36 21.44C21.3067 23.0133 22.28 25.1467 22.28 27.84C22.28 29.1467 22.0667 30.3333 21.64 31.4C21.24 32.44 20.6267 33.3467 19.8 34.12C19 34.8667 17.9733 35.4533 16.72 35.88C15.4933 36.28 14.0667 36.48 12.44 36.48H9.6V43.84ZM33.2516 39.68C33.7049 39.68 34.1982 39.64 34.7316 39.56C35.2916 39.4533 35.7049 39.32 35.9716 39.16V35.96L33.0916 36.2C32.3449 36.2533 31.7316 36.4133 31.2516 36.68C30.7716 36.9467 30.5316 37.3467 30.5316 37.88C30.5316 38.4133 30.7316 38.8533 31.1316 39.2C31.5582 39.52 32.2649 39.68 33.2516 39.68ZM32.9316 23.96C34.3716 23.96 35.6782 24.1067 36.8516 24.4C38.0516 24.6933 39.0649 25.1467 39.8916 25.76C40.7449 26.3467 41.3982 27.1067 41.8516 28.04C42.3049 28.9467 42.5316 30.0267 42.5316 31.28V40.24C42.5316 40.9333 42.3316 41.5067 41.9316 41.96C41.5582 42.3867 41.1049 42.76 40.5716 43.08C38.8382 44.12 36.3982 44.64 33.2516 44.64C31.8382 44.64 30.5582 44.5067 29.4116 44.24C28.2916 43.9733 27.3182 43.5733 26.4916 43.04C25.6916 42.5067 25.0649 41.8267 24.6116 41C24.1849 40.1733 23.9716 39.2133 23.9716 38.12C23.9716 36.28 24.5182 34.8667 25.6116 33.88C26.7049 32.8933 28.3982 32.28 30.6916 32.04L35.9316 31.48V31.2C35.9316 30.4267 35.5849 29.88 34.8916 29.56C34.2249 29.2133 33.2516 29.04 31.9716 29.04C30.9582 29.04 29.9716 29.1467 29.0116 29.36C28.0516 29.5733 27.1849 29.84 26.4116 30.16C26.0649 29.92 25.7716 29.56 25.5316 29.08C25.2916 28.5733 25.1716 28.0533 25.1716 27.52C25.1716 26.8267 25.3316 26.28 25.6516 25.88C25.9982 25.4533 26.5182 25.0933 27.2116 24.8C27.9849 24.5067 28.8916 24.2933 29.9316 24.16C30.9982 24.0267 31.9982 23.96 32.9316 23.96ZM57.4959 43.4C57.1226 43.72 56.6159 43.9733 55.9759 44.16C55.3359 44.3733 54.5759 44.48 53.6959 44.48C52.6026 44.48 51.6559 44.32 50.8559 44C50.0559 43.7067 49.5226 43.28 49.2559 42.72C48.9626 42.08 48.6159 41.0667 48.2159 39.68C47.8426 38.2933 47.4693 36.7733 47.0959 35.12C46.7226 33.4667 46.3626 31.7867 46.0159 30.08C45.6959 28.3733 45.4426 26.8667 45.2559 25.56C45.6293 25.1867 46.1226 24.8667 46.7359 24.6C47.3759 24.3067 48.0693 24.16 48.8159 24.16C49.7493 24.16 50.5093 24.3733 51.0959 24.8C51.7093 25.2 52.0826 25.9067 52.2159 26.92C52.4826 28.9467 52.7093 30.6267 52.8959 31.96C53.0826 33.2667 53.2293 34.3467 53.3359 35.2C53.4693 36.0267 53.5626 36.6667 53.6159 37.12C53.6959 37.5467 53.7626 37.8933 53.8159 38.16H53.9759C54.0559 37.7333 54.1893 37.12 54.3759 36.32C54.5893 35.4933 54.8293 34.56 55.0959 33.52C55.3626 32.48 55.6426 31.36 55.9359 30.16C56.2293 28.9333 56.5226 27.72 56.8159 26.52C57.3493 26.2267 57.8693 26 58.3759 25.84C58.9093 25.68 59.5626 25.6 60.3359 25.6C61.2693 25.6 62.0693 25.7467 62.7359 26.04C63.4026 26.3333 63.8293 26.7867 64.0159 27.4C64.3359 28.5733 64.6426 29.72 64.9359 30.84C65.2293 31.9333 65.4959 32.96 65.7359 33.92C65.9759 34.8533 66.1893 35.6933 66.3759 36.44C66.5626 37.16 66.6959 37.7333 66.7759 38.16H66.9759C67.2693 36.1067 67.5493 33.9733 67.8159 31.76C68.1093 29.5467 68.3759 27.2933 68.6159 25C69.0959 24.7067 69.6026 24.4933 70.1359 24.36C70.6693 24.2267 71.2026 24.16 71.7359 24.16C72.6693 24.16 73.4426 24.36 74.0559 24.76C74.6693 25.16 74.9759 25.8533 74.9759 26.84C74.9759 27.2667 74.9093 27.9067 74.7759 28.76C74.6426 29.6133 74.4693 30.5733 74.2559 31.64C74.0426 32.7067 73.7893 33.8267 73.4959 35C73.2293 36.1733 72.9493 37.3067 72.6559 38.4C72.3893 39.4933 72.1226 40.48 71.8559 41.36C71.6159 42.24 71.4026 42.92 71.2159 43.4C70.8426 43.72 70.2693 43.9733 69.4959 44.16C68.7226 44.3733 67.8959 44.48 67.0159 44.48C64.7759 44.48 63.4559 43.92 63.0559 42.8C62.8959 42.32 62.6959 41.72 62.4559 41C62.2159 40.2533 61.9626 39.44 61.6959 38.56C61.4293 37.68 61.1759 36.7733 60.9359 35.84C60.6959 34.88 60.4959 33.96 60.3359 33.08C60.1493 34.0133 59.9226 34.9867 59.6559 36C59.3893 36.9867 59.1093 37.96 58.8159 38.92C58.5493 39.8533 58.2959 40.72 58.0559 41.52C57.8159 42.2933 57.6293 42.92 57.4959 43.4ZM87.6566 31C88.7766 31 89.6299 30.7467 90.2166 30.24C90.8299 29.7067 91.1366 28.9067 91.1366 27.84C91.1366 26.8267 90.8166 26.0533 90.1766 25.52C89.5632 24.96 88.6566 24.68 87.4566 24.68C87.0299 24.68 86.6699 24.6933 86.3766 24.72C86.1099 24.72 85.8299 24.7467 85.5366 24.8V31H87.6566ZM85.5766 43.84C85.2832 43.92 84.8166 44 84.1766 44.08C83.5632 44.16 82.9499 44.2 82.3366 44.2C81.7232 44.2 81.1766 44.1467 80.6966 44.04C80.2432 43.96 79.8566 43.8 79.5366 43.56C79.2166 43.32 78.9766 42.9867 78.8166 42.56C78.6566 42.1333 78.5766 41.5733 78.5766 40.88V22.04C78.5766 21.48 78.7232 21.0533 79.0166 20.76C79.3366 20.44 79.7632 20.1867 80.2966 20C81.2032 19.68 82.2299 19.4533 83.3766 19.32C84.5499 19.16 85.7232 19.08 86.8966 19.08C90.5766 19.08 93.3899 19.8667 95.3366 21.44C97.2832 23.0133 98.2566 25.1467 98.2566 27.84C98.2566 29.1467 98.0432 30.3333 97.6166 31.4C97.2166 32.44 96.6032 33.3467 95.7766 34.12C94.9766 34.8667 93.9499 35.4533 92.6966 35.88C91.4699 36.28 90.0432 36.48 88.4166 36.48H85.5766V43.84ZM100.748 19.16C100.748 18.1467 101.081 17.2933 101.748 16.6C102.441 15.9067 103.348 15.56 104.468 15.56C105.588 15.56 106.481 15.9067 107.148 16.6C107.841 17.2933 108.188 18.1467 108.188 19.16C108.188 20.1733 107.841 21.0267 107.148 21.72C106.481 22.4133 105.588 22.76 104.468 22.76C103.348 22.76 102.441 22.4133 101.748 21.72C101.081 21.0267 100.748 20.1733 100.748 19.16ZM107.868 43.96C107.575 44.0133 107.135 44.08 106.548 44.16C105.988 44.2667 105.415 44.32 104.828 44.32C104.241 44.32 103.708 44.28 103.228 44.2C102.775 44.12 102.388 43.96 102.068 43.72C101.748 43.48 101.495 43.16 101.308 42.76C101.148 42.3333 101.068 41.7867 101.068 41.12V24.84C101.361 24.7867 101.788 24.72 102.348 24.64C102.935 24.5333 103.521 24.48 104.108 24.48C104.695 24.48 105.215 24.52 105.668 24.6C106.148 24.68 106.548 24.84 106.868 25.08C107.188 25.32 107.428 25.6533 107.588 26.08C107.775 26.48 107.868 27.0133 107.868 27.68V43.96ZM123.157 29.32C122.491 29.32 121.851 29.4267 121.237 29.64C120.651 29.8533 120.131 30.1733 119.677 30.6C119.251 31 118.904 31.5067 118.637 32.12C118.371 32.7333 118.237 33.4533 118.237 34.28C118.237 35.9333 118.704 37.1733 119.637 38C120.597 38.8267 121.757 39.24 123.117 39.24C123.917 39.24 124.611 39.1467 125.197 38.96C125.784 38.7733 126.304 38.5733 126.757 38.36C127.291 38.7333 127.691 39.1467 127.957 39.6C128.224 40.0267 128.357 40.5467 128.357 41.16C128.357 42.2533 127.837 43.1067 126.797 43.72C125.757 44.3067 124.317 44.6 122.477 44.6C120.797 44.6 119.277 44.36 117.917 43.88C116.557 43.3733 115.384 42.68 114.397 41.8C113.437 40.8933 112.691 39.8133 112.157 38.56C111.624 37.3067 111.357 35.92 111.357 34.4C111.357 32.64 111.637 31.1067 112.197 29.8C112.784 28.4667 113.571 27.3733 114.557 26.52C115.544 25.6667 116.677 25.0267 117.957 24.6C119.264 24.1733 120.637 23.96 122.077 23.96C123.997 23.96 125.477 24.3067 126.517 25C127.557 25.6933 128.077 26.5867 128.077 27.68C128.077 28.1867 127.957 28.6667 127.717 29.12C127.477 29.5467 127.197 29.92 126.877 30.24C126.424 30.0267 125.877 29.8267 125.237 29.64C124.597 29.4267 123.904 29.32 123.157 29.32ZM150.768 40.48C150.634 41.7333 150.261 42.6933 149.648 43.36C149.061 44.0267 148.194 44.36 147.048 44.36C146.194 44.36 145.434 44.16 144.768 43.76C144.101 43.3333 143.381 42.6267 142.608 41.64L138.648 36.68V43.96C138.354 44.0133 137.914 44.08 137.328 44.16C136.768 44.2667 136.194 44.32 135.608 44.32C135.021 44.32 134.488 44.28 134.008 44.2C133.554 44.12 133.168 43.96 132.848 43.72C132.528 43.48 132.274 43.16 132.088 42.76C131.928 42.3333 131.848 41.7867 131.848 41.12V17.96C132.141 17.88 132.568 17.8 133.128 17.72C133.714 17.6133 134.301 17.56 134.888 17.56C135.474 17.56 135.994 17.6 136.448 17.68C136.928 17.76 137.328 17.92 137.648 18.16C137.968 18.4 138.208 18.7333 138.368 19.16C138.554 19.56 138.648 20.0933 138.648 20.76V31.32L145.528 24.28C146.914 24.28 148.021 24.5867 148.848 25.2C149.701 25.8133 150.128 26.5867 150.128 27.52C150.128 27.92 150.061 28.2933 149.928 28.64C149.794 28.96 149.581 29.2933 149.288 29.64C149.021 29.9867 148.661 30.36 148.208 30.76C147.781 31.1333 147.274 31.5733 146.688 32.08L144.368 34.08L150.768 40.48Z" fill="#103559"/>
<ellipse cx="80.8299" cy="16.2337" rx="1.5" ry="2" transform="rotate(-10.1806 80.8299 16.2337)" fill="#103559"/>
<ellipse cx="94.8631" cy="17.2555" rx="1.5" ry="2" transform="rotate(23.3558 94.8631 17.2555)" fill="#103559"/>
<ellipse cx="90.9807" cy="14.4788" rx="2.22449" ry="2.96599" transform="rotate(16.6401 90.9807 14.4788)" fill="#103559"/>
<ellipse cx="85.4593" cy="14.1377" rx="2.22449" ry="2.96599" transform="rotate(-4.6847 85.4593 14.1377)" fill="#103559"/>
</svg>
